<svg xmlns="http://www.w3.org/2000/svg" viewBox="0 0 64 64">
  <defs>
    <linearGradient id="g" x1="8" y1="5" x2="55" y2="60" gradientUnits="userSpaceOnUse">
      <stop stop-color="#65e7ff"/>
      <stop offset=".52" stop-color="#8d7cff"/>
      <stop offset="1" stop-color="#ff77bd"/>
    </linearGradient>
  </defs>
  <rect width="64" height="64" rx="18" fill="#080b17"/>
  <rect x="2" y="2" width="60" height="60" rx="16" fill="none" stroke="url(#g)" stroke-width="2"/>
  <path d="M17 41.5c2.8 3 6.5 4.5 10.8 4.5 6.4 0 10.2-3 10.2-7.7 0-4.3-2.6-6.6-8.9-8.1-4.2-1-5.4-1.9-5.4-3.8 0-1.8 1.7-3 4.4-3 2.8 0 5.4 1 7.7 3l3.5-4.4c-3-2.8-6.8-4.2-11.1-4.2-6.3 0-10.5 3.4-10.5 8.8 0 4.5 2.9 6.8 9.2 8.3 4 1 5.1 1.8 5.1 3.6 0 1.6-1.5 2.8-4.1 2.8-3 0-5.8-1.2-8.2-3.6L17 41.5Z" fill="url(#g)"/>
  <path d="m42 18-4.2 13.2L48 46h7L44.7 31.1 49 18h-7Z" fill="url(#g)" opacity=".92"/>
</svg>
